<?xml version="1.0" encoding="utf-8" standalone="no"?>
<!DOCTYPE svg PUBLIC "-//W3C//DTD SVG 1.1//EN"
  "http://www.w3.org/Graphics/SVG/1.1/DTD/svg11.dtd">
<!-- Created with matplotlib (http://matplotlib.org/) -->
<svg height="576pt" version="1.1" viewBox="0 0 792 576" width="792pt" xmlns="http://www.w3.org/2000/svg" xmlns:xlink="http://www.w3.org/1999/xlink">
 <defs>
  <style type="text/css">
*{stroke-linecap:butt;stroke-linejoin:round;}
  </style>
 </defs>
 <g id="figure_1">
  <g id="patch_1">
   <path d="
M0 576
L792 576
L792 0
L0 0
z
" style="fill:#ffffff;"/>
  </g>
  <g id="axes_1">
   <g id="patch_2">
    <path d="
M99 518.4
L590.04 518.4
L590.04 57.6
L99 57.6
z
" style="fill:#e5e5e5;"/>
   </g>
   <g id="matplotlib.axis_1">
    <g id="xtick_1">
     <g id="line2d_1">
      <path clip-path="url(#pfeb518cb43)" d="
M155.51 518.4
L155.51 57.6" style="fill:none;stroke:#ffffff;stroke-linecap:square;stroke-width:1.4;"/>
     </g>
     <g id="line2d_2">
      <defs>
       <path d="
M0 0
L0 5" id="m0969774f1e" style="stroke:#7f7f7f;stroke-width:1.4;"/>
      </defs>
      <g>
       <use style="fill:#7f7f7f;stroke:#7f7f7f;stroke-width:1.4;" x="155.509578293" xlink:href="#m0969774f1e" y="518.4"/>
      </g>
     </g>
     <g id="text_1">
      <!-- Oct 01 2015 -->
      <defs>
       <path d="
M48.7812 52.5938
L48.7812 44.1875
Q44.9688 46.2969 41.1406 47.3438
Q37.3125 48.3906 33.4062 48.3906
Q24.6562 48.3906 19.8125 42.8438
Q14.9844 37.3125 14.9844 27.2969
Q14.9844 17.2812 19.8125 11.7344
Q24.6562 6.20312 33.4062 6.20312
Q37.3125 6.20312 41.1406 7.25
Q44.9688 8.29688 48.7812 10.4062
L48.7812 2.09375
Q45.0156 0.34375 40.9844 -0.53125
Q36.9688 -1.42188 32.4219 -1.42188
Q20.0625 -1.42188 12.7812 6.34375
Q5.51562 14.1094 5.51562 27.2969
Q5.51562 40.6719 12.8594 48.3281
Q20.2188 56 33.0156 56
Q37.1562 56 41.1094 55.1406
Q45.0625 54.2969 48.7812 52.5938" id="DejaVuSans-63"/>
       <path id="DejaVuSans-20"/>
       <path d="
M10.7969 72.9062
L49.5156 72.9062
L49.5156 64.5938
L19.8281 64.5938
L19.8281 46.7344
Q21.9688 47.4688 24.1094 47.8281
Q26.2656 48.1875 28.4219 48.1875
Q40.625 48.1875 47.75 41.5
Q54.8906 34.8125 54.8906 23.3906
Q54.8906 11.625 47.5625 5.09375
Q40.2344 -1.42188 26.9062 -1.42188
Q22.3125 -1.42188 17.5469 -0.640625
Q12.7969 0.140625 7.71875 1.70312
L7.71875 11.625
Q12.1094 9.23438 16.7969 8.0625
Q21.4844 6.89062 26.7031 6.89062
Q35.1562 6.89062 40.0781 11.3281
Q45.0156 15.7656 45.0156 23.3906
Q45.0156 31 40.0781 35.4375
Q35.1562 39.8906 26.7031 39.8906
Q22.75 39.8906 18.8125 39.0156
Q14.8906 38.1406 10.7969 36.2812
z
" id="DejaVuSans-35"/>
       <path d="
M39.4062 66.2188
Q28.6562 66.2188 22.3281 58.2031
Q16.0156 50.2031 16.0156 36.375
Q16.0156 22.6094 22.3281 14.5938
Q28.6562 6.59375 39.4062 6.59375
Q50.1406 6.59375 56.4219 14.5938
Q62.7031 22.6094 62.7031 36.375
Q62.7031 50.2031 56.4219 58.2031
Q50.1406 66.2188 39.4062 66.2188
M39.4062 74.2188
Q54.7344 74.2188 63.9062 63.9375
Q73.0938 53.6562 73.0938 36.375
Q73.0938 19.1406 63.9062 8.85938
Q54.7344 -1.42188 39.4062 -1.42188
Q24.0312 -1.42188 14.8125 8.82812
Q5.60938 19.0938 5.60938 36.375
Q5.60938 53.6562 14.8125 63.9375
Q24.0312 74.2188 39.4062 74.2188" id="DejaVuSans-4f"/>
       <path d="
M12.4062 8.29688
L28.5156 8.29688
L28.5156 63.9219
L10.9844 60.4062
L10.9844 69.3906
L28.4219 72.9062
L38.2812 72.9062
L38.2812 8.29688
L54.3906 8.29688
L54.3906 0
L12.4062 0
z
" id="DejaVuSans-31"/>
       <path d="
M31.7812 66.4062
Q24.1719 66.4062 20.3281 58.9062
Q16.5 51.4219 16.5 36.375
Q16.5 21.3906 20.3281 13.8906
Q24.1719 6.39062 31.7812 6.39062
Q39.4531 6.39062 43.2812 13.8906
Q47.125 21.3906 47.125 36.375
Q47.125 51.4219 43.2812 58.9062
Q39.4531 66.4062 31.7812 66.4062
M31.7812 74.2188
Q44.0469 74.2188 50.5156 64.5156
Q56.9844 54.8281 56.9844 36.375
Q56.9844 17.9688 50.5156 8.26562
Q44.0469 -1.42188 31.7812 -1.42188
Q19.5312 -1.42188 13.0625 8.26562
Q6.59375 17.9688 6.59375 36.375
Q6.59375 54.8281 13.0625 64.5156
Q19.5312 74.2188 31.7812 74.2188" id="DejaVuSans-30"/>
       <path d="
M18.3125 70.2188
L18.3125 54.6875
L36.8125 54.6875
L36.8125 47.7031
L18.3125 47.7031
L18.3125 18.0156
Q18.3125 11.3281 20.1406 9.42188
Q21.9688 7.51562 27.5938 7.51562
L36.8125 7.51562
L36.8125 0
L27.5938 0
Q17.1875 0 13.2344 3.875
Q9.28125 7.76562 9.28125 18.0156
L9.28125 47.7031
L2.6875 47.7031
L2.6875 54.6875
L9.28125 54.6875
L9.28125 70.2188
z
" id="DejaVuSans-74"/>
       <path d="
M19.1875 8.29688
L53.6094 8.29688
L53.6094 0
L7.32812 0
L7.32812 8.29688
Q12.9375 14.1094 22.625 23.8906
Q32.3281 33.6875 34.8125 36.5312
Q39.5469 41.8438 41.4219 45.5312
Q43.3125 49.2188 43.3125 52.7812
Q43.3125 58.5938 39.2344 62.25
Q35.1562 65.9219 28.6094 65.9219
Q23.9688 65.9219 18.8125 64.3125
Q13.6719 62.7031 7.8125 59.4219
L7.8125 69.3906
Q13.7656 71.7812 18.9375 73
Q24.125 74.2188 28.4219 74.2188
Q39.75 74.2188 46.4844 68.5469
Q53.2188 62.8906 53.2188 53.4219
Q53.2188 48.9219 51.5312 44.8906
Q49.8594 40.875 45.4062 35.4062
Q44.1875 33.9844 37.6406 27.2188
Q31.1094 20.4531 19.1875 8.29688" id="DejaVuSans-32"/>
      </defs>
      <g style="fill:#7f7f7f;" transform="translate(118.940515793 533.518125)scale(0.12 -0.12)">
       <use xlink:href="#DejaVuSans-4f"/>
       <use x="78.7109375" xlink:href="#DejaVuSans-63"/>
       <use x="133.69140625" xlink:href="#DejaVuSans-74"/>
       <use x="172.900390625" xlink:href="#DejaVuSans-20"/>
       <use x="204.6875" xlink:href="#DejaVuSans-30"/>
       <use x="268.310546875" xlink:href="#DejaVuSans-31"/>
       <use x="331.93359375" xlink:href="#DejaVuSans-20"/>
       <use x="363.720703125" xlink:href="#DejaVuSans-32"/>
       <use x="427.34375" xlink:href="#DejaVuSans-30"/>
       <use x="490.966796875" xlink:href="#DejaVuSans-31"/>
       <use x="554.58984375" xlink:href="#DejaVuSans-35"/>
      </g>
     </g>
    </g>
    <g id="xtick_2">
     <g id="line2d_3">
      <path clip-path="url(#pfeb518cb43)" d="
M250.788 518.4
L250.788 57.6" style="fill:none;stroke:#ffffff;stroke-linecap:square;stroke-width:1.4;"/>
     </g>
     <g id="line2d_4">
      <g>
       <use style="fill:#7f7f7f;stroke:#7f7f7f;stroke-width:1.4;" x="250.788100066" xlink:href="#m0969774f1e" y="518.4"/>
      </g>
     </g>
     <g id="text_2">
      <!-- Oct 08 2015 -->
      <defs>
       <path d="
M31.7812 34.625
Q24.75 34.625 20.7188 30.8594
Q16.7031 27.0938 16.7031 20.5156
Q16.7031 13.9219 20.7188 10.1562
Q24.75 6.39062 31.7812 6.39062
Q38.8125 6.39062 42.8594 10.1719
Q46.9219 13.9688 46.9219 20.5156
Q46.9219 27.0938 42.8906 30.8594
Q38.875 34.625 31.7812 34.625
M21.9219 38.8125
Q15.5781 40.375 12.0312 44.7188
Q8.5 49.0781 8.5 55.3281
Q8.5 64.0625 14.7188 69.1406
Q20.9531 74.2188 31.7812 74.2188
Q42.6719 74.2188 48.875 69.1406
Q55.0781 64.0625 55.0781 55.3281
Q55.0781 49.0781 51.5312 44.7188
Q48 40.375 41.7031 38.8125
Q48.8281 37.1562 52.7969 32.3125
Q56.7812 27.4844 56.7812 20.5156
Q56.7812 9.90625 50.3125 4.23438
Q43.8438 -1.42188 31.7812 -1.42188
Q19.7344 -1.42188 13.25 4.23438
Q6.78125 9.90625 6.78125 20.5156
Q6.78125 27.4844 10.7812 32.3125
Q14.7969 37.1562 21.9219 38.8125
M18.3125 54.3906
Q18.3125 48.7344 21.8438 45.5625
Q25.3906 42.3906 31.7812 42.3906
Q38.1406 42.3906 41.7188 45.5625
Q45.3125 48.7344 45.3125 54.3906
Q45.3125 60.0625 41.7188 63.2344
Q38.1406 66.4062 31.7812 66.4062
Q25.3906 66.4062 21.8438 63.2344
Q18.3125 60.0625 18.3125 54.3906" id="DejaVuSans-38"/>
      </defs>
      <g style="fill:#7f7f7f;" transform="translate(214.219037566 533.518125)scale(0.12 -0.12)">
       <use xlink:href="#DejaVuSans-4f"/>
       <use x="78.7109375" xlink:href="#DejaVuSans-63"/>
       <use x="133.69140625" xlink:href="#DejaVuSans-74"/>
       <use x="172.900390625" xlink:href="#DejaVuSans-20"/>
       <use x="204.6875" xlink:href="#DejaVuSans-30"/>
       <use x="268.310546875" xlink:href="#DejaVuSans-38"/>
       <use x="331.93359375" xlink:href="#DejaVuSans-20"/>
       <use x="363.720703125" xlink:href="#DejaVuSans-32"/>
       <use x="427.34375" xlink:href="#DejaVuSans-30"/>
       <use x="490.966796875" xlink:href="#DejaVuSans-31"/>
       <use x="554.58984375" xlink:href="#DejaVuSans-35"/>
      </g>
     </g>
    </g>
    <g id="xtick_3">
     <g id="line2d_5">
      <path clip-path="url(#pfeb518cb43)" d="
M346.067 518.4
L346.067 57.6" style="fill:none;stroke:#ffffff;stroke-linecap:square;stroke-width:1.4;"/>
     </g>
     <g id="line2d_6">
      <g>
       <use style="fill:#7f7f7f;stroke:#7f7f7f;stroke-width:1.4;" x="346.066621838" xlink:href="#m0969774f1e" y="518.4"/>
      </g>
     </g>
     <g id="text_3">
      <!-- Oct 15 2015 -->
      <g style="fill:#7f7f7f;" transform="translate(309.497559338 533.518125)scale(0.12 -0.12)">
       <use xlink:href="#DejaVuSans-4f"/>
       <use x="78.7109375" xlink:href="#DejaVuSans-63"/>
       <use x="133.69140625" xlink:href="#DejaVuSans-74"/>
       <use x="172.900390625" xlink:href="#DejaVuSans-20"/>
       <use x="204.6875" xlink:href="#DejaVuSans-31"/>
       <use x="268.310546875" xlink:href="#DejaVuSans-35"/>
       <use x="331.93359375" xlink:href="#DejaVuSans-20"/>
       <use x="363.720703125" xlink:href="#DejaVuSans-32"/>
       <use x="427.34375" xlink:href="#DejaVuSans-30"/>
       <use x="490.966796875" xlink:href="#DejaVuSans-31"/>
       <use x="554.58984375" xlink:href="#DejaVuSans-35"/>
      </g>
     </g>
    </g>
    <g id="xtick_4">
     <g id="line2d_7">
      <path clip-path="url(#pfeb518cb43)" d="
M441.345 518.4
L441.345 57.6" style="fill:none;stroke:#ffffff;stroke-linecap:square;stroke-width:1.4;"/>
     </g>
     <g id="line2d_8">
      <g>
       <use style="fill:#7f7f7f;stroke:#7f7f7f;stroke-width:1.4;" x="441.345143611" xlink:href="#m0969774f1e" y="518.4"/>
      </g>
     </g>
     <g id="text_4">
      <!-- Oct 22 2015 -->
      <g style="fill:#7f7f7f;" transform="translate(404.776081111 533.518125)scale(0.12 -0.12)">
       <use xlink:href="#DejaVuSans-4f"/>
       <use x="78.7109375" xlink:href="#DejaVuSans-63"/>
       <use x="133.69140625" xlink:href="#DejaVuSans-74"/>
       <use x="172.900390625" xlink:href="#DejaVuSans-20"/>
       <use x="204.6875" xlink:href="#DejaVuSans-32"/>
       <use x="268.310546875" xlink:href="#DejaVuSans-32"/>
       <use x="331.93359375" xlink:href="#DejaVuSans-20"/>
       <use x="363.720703125" xlink:href="#DejaVuSans-32"/>
       <use x="427.34375" xlink:href="#DejaVuSans-30"/>
       <use x="490.966796875" xlink:href="#DejaVuSans-31"/>
       <use x="554.58984375" xlink:href="#DejaVuSans-35"/>
      </g>
     </g>
    </g>
    <g id="xtick_5">
     <g id="line2d_9">
      <path clip-path="url(#pfeb518cb43)" d="
M536.624 518.4
L536.624 57.6" style="fill:none;stroke:#ffffff;stroke-linecap:square;stroke-width:1.4;"/>
     </g>
     <g id="line2d_10">
      <g>
       <use style="fill:#7f7f7f;stroke:#7f7f7f;stroke-width:1.4;" x="536.623665381" xlink:href="#m0969774f1e" y="518.4"/>
      </g>
     </g>
     <g id="text_5">
      <!-- Oct 29 2015 -->
      <defs>
       <path d="
M10.9844 1.51562
L10.9844 10.5
Q14.7031 8.73438 18.5 7.8125
Q22.3125 6.89062 25.9844 6.89062
Q35.75 6.89062 40.8906 13.4531
Q46.0469 20.0156 46.7812 33.4062
Q43.9531 29.2031 39.5938 26.9531
Q35.25 24.7031 29.9844 24.7031
Q19.0469 24.7031 12.6719 31.3125
Q6.29688 37.9375 6.29688 49.4219
Q6.29688 60.6406 12.9375 67.4219
Q19.5781 74.2188 30.6094 74.2188
Q43.2656 74.2188 49.9219 64.5156
Q56.5938 54.8281 56.5938 36.375
Q56.5938 19.1406 48.4062 8.85938
Q40.2344 -1.42188 26.4219 -1.42188
Q22.7031 -1.42188 18.8906 -0.6875
Q15.0938 0.046875 10.9844 1.51562
M30.6094 32.4219
Q37.25 32.4219 41.125 36.9531
Q45.0156 41.5 45.0156 49.4219
Q45.0156 57.2812 41.125 61.8438
Q37.25 66.4062 30.6094 66.4062
Q23.9688 66.4062 20.0938 61.8438
Q16.2188 57.2812 16.2188 49.4219
Q16.2188 41.5 20.0938 36.9531
Q23.9688 32.4219 30.6094 32.4219" id="DejaVuSans-39"/>
      </defs>
      <g style="fill:#7f7f7f;" transform="translate(500.054602881 533.518125)scale(0.12 -0.12)">
       <use xlink:href="#DejaVuSans-4f"/>
       <use x="78.7109375" xlink:href="#DejaVuSans-63"/>
       <use x="133.69140625" xlink:href="#DejaVuSans-74"/>
       <use x="172.900390625" xlink:href="#DejaVuSans-20"/>
       <use x="204.6875" xlink:href="#DejaVuSans-32"/>
       <use x="268.310546875" xlink:href="#DejaVuSans-39"/>
       <use x="331.93359375" xlink:href="#DejaVuSans-20"/>
       <use x="363.720703125" xlink:href="#DejaVuSans-32"/>
       <use x="427.34375" xlink:href="#DejaVuSans-30"/>
       <use x="490.966796875" xlink:href="#DejaVuSans-31"/>
       <use x="554.58984375" xlink:href="#DejaVuSans-35"/>
      </g>
     </g>
    </g>
    <g id="xtick_6">
     <g id="line2d_11">
      <path clip-path="url(#pfeb518cb43)" d="
M107.87 518.4
L107.87 57.6" style="fill:none;stroke:#f2f2f2;stroke-linecap:square;stroke-width:0.7;"/>
     </g>
     <g id="line2d_12">
      <defs>
       <path d="
M0 0
L0 0" id="m5e2150a77a" style="stroke:#7f7f7f;stroke-width:0.5;"/>
      </defs>
      <g>
       <use style="fill:#7f7f7f;stroke:#7f7f7f;stroke-width:0.5;" x="107.870317409" xlink:href="#m5e2150a77a" y="518.4"/>
      </g>
     </g>
    </g>
    <g id="xtick_7">
     <g id="line2d_13">
      <path clip-path="url(#pfeb518cb43)" d="
M203.149 518.4
L203.149 57.6" style="fill:none;stroke:#f2f2f2;stroke-linecap:square;stroke-width:0.7;"/>
     </g>
     <g id="line2d_14">
      <g>
       <use style="fill:#7f7f7f;stroke:#7f7f7f;stroke-width:0.5;" x="203.148839179" xlink:href="#m5e2150a77a" y="518.4"/>
      </g>
     </g>
    </g>
    <g id="xtick_8">
     <g id="line2d_15">
      <path clip-path="url(#pfeb518cb43)" d="
M298.427 518.4
L298.427 57.6" style="fill:none;stroke:#f2f2f2;stroke-linecap:square;stroke-width:0.7;"/>
     </g>
     <g id="line2d_16">
      <g>
       <use style="fill:#7f7f7f;stroke:#7f7f7f;stroke-width:0.5;" x="298.427360952" xlink:href="#m5e2150a77a" y="518.4"/>
      </g>
     </g>
    </g>
    <g id="xtick_9">
     <g id="line2d_17">
      <path clip-path="url(#pfeb518cb43)" d="
M393.706 518.4
L393.706 57.6" style="fill:none;stroke:#f2f2f2;stroke-linecap:square;stroke-width:0.7;"/>
     </g>
     <g id="line2d_18">
      <g>
       <use style="fill:#7f7f7f;stroke:#7f7f7f;stroke-width:0.5;" x="393.705882724" xlink:href="#m5e2150a77a" y="518.4"/>
      </g>
     </g>
    </g>
    <g id="xtick_10">
     <g id="line2d_19">
      <path clip-path="url(#pfeb518cb43)" d="
M488.984 518.4
L488.984 57.6" style="fill:none;stroke:#f2f2f2;stroke-linecap:square;stroke-width:0.7;"/>
     </g>
     <g id="line2d_20">
      <g>
       <use style="fill:#7f7f7f;stroke:#7f7f7f;stroke-width:0.5;" x="488.984404495" xlink:href="#m5e2150a77a" y="518.4"/>
      </g>
     </g>
    </g>
    <g id="text_6">
     <!-- submitted -->
     <defs>
      <path d="
M8.5 21.5781
L8.5 54.6875
L17.4844 54.6875
L17.4844 21.9219
Q17.4844 14.1562 20.5 10.2656
Q23.5312 6.39062 29.5938 6.39062
Q36.8594 6.39062 41.0781 11.0312
Q45.3125 15.6719 45.3125 23.6875
L45.3125 54.6875
L54.2969 54.6875
L54.2969 0
L45.3125 0
L45.3125 8.40625
Q42.0469 3.42188 37.7188 1
Q33.4062 -1.42188 27.6875 -1.42188
Q18.2656 -1.42188 13.375 4.4375
Q8.5 10.2969 8.5 21.5781
M31.1094 56
z
" id="DejaVuSans-75"/>
      <path d="
M52 44.1875
Q55.375 50.25 60.0625 53.125
Q64.75 56 71.0938 56
Q79.6406 56 84.2812 50.0156
Q88.9219 44.0469 88.9219 33.0156
L88.9219 0
L79.8906 0
L79.8906 32.7188
Q79.8906 40.5781 77.0938 44.375
Q74.3125 48.1875 68.6094 48.1875
Q61.625 48.1875 57.5625 43.5469
Q53.5156 38.9219 53.5156 30.9062
L53.5156 0
L44.4844 0
L44.4844 32.7188
Q44.4844 40.625 41.7031 44.4062
Q38.9219 48.1875 33.1094 48.1875
Q26.2188 48.1875 22.1562 43.5312
Q18.1094 38.875 18.1094 30.9062
L18.1094 0
L9.07812 0
L9.07812 54.6875
L18.1094 54.6875
L18.1094 46.1875
Q21.1875 51.2188 25.4844 53.6094
Q29.7812 56 35.6875 56
Q41.6562 56 45.8281 52.9688
Q50 49.9531 52 44.1875" id="DejaVuSans-6d"/>
      <path d="
M56.2031 29.5938
L56.2031 25.2031
L14.8906 25.2031
Q15.4844 15.9219 20.4844 11.0625
Q25.4844 6.20312 34.4219 6.20312
Q39.5938 6.20312 44.4531 7.46875
Q49.3125 8.73438 54.1094 11.2812
L54.1094 2.78125
Q49.2656 0.734375 44.1875 -0.34375
Q39.1094 -1.42188 33.8906 -1.42188
Q20.7969 -1.42188 13.1562 6.1875
Q5.51562 13.8125 5.51562 26.8125
Q5.51562 40.2344 12.7656 48.1094
Q20.0156 56 32.3281 56
Q43.3594 56 49.7812 48.8906
Q56.2031 41.7969 56.2031 29.5938
M47.2188 32.2344
Q47.125 39.5938 43.0938 43.9844
Q39.0625 48.3906 32.4219 48.3906
Q24.9062 48.3906 20.3906 44.1406
Q15.875 39.8906 15.1875 32.1719
z
" id="DejaVuSans-65"/>
      <path d="
M44.2812 53.0781
L44.2812 44.5781
Q40.4844 46.5312 36.375 47.5
Q32.2812 48.4844 27.875 48.4844
Q21.1875 48.4844 17.8438 46.4375
Q14.5 44.3906 14.5 40.2812
Q14.5 37.1562 16.8906 35.375
Q19.2812 33.5938 26.5156 31.9844
L29.5938 31.2969
Q39.1562 29.25 43.1875 25.5156
Q47.2188 21.7812 47.2188 15.0938
Q47.2188 7.46875 41.1875 3.01562
Q35.1562 -1.42188 24.6094 -1.42188
Q20.2188 -1.42188 15.4531 -0.5625
Q10.6875 0.296875 5.42188 2
L5.42188 11.2812
Q10.4062 8.6875 15.2344 7.39062
Q20.0625 6.10938 24.8125 6.10938
Q31.1562 6.10938 34.5625 8.28125
Q37.9844 10.4531 37.9844 14.4062
Q37.9844 18.0625 35.5156 20.0156
Q33.0625 21.9688 24.7031 23.7812
L21.5781 24.5156
Q13.2344 26.2656 9.51562 29.9062
Q5.8125 33.5469 5.8125 39.8906
Q5.8125 47.6094 11.2812 51.7969
Q16.75 56 26.8125 56
Q31.7812 56 36.1719 55.2656
Q40.5781 54.5469 44.2812 53.0781" id="DejaVuSans-73"/>
      <path d="
M9.42188 54.6875
L18.4062 54.6875
L18.4062 0
L9.42188 0
z

M9.42188 75.9844
L18.4062 75.9844
L18.4062 64.5938
L9.42188 64.5938
z
" id="DejaVuSans-69"/>
      <path d="
M45.4062 46.3906
L45.4062 75.9844
L54.3906 75.9844
L54.3906 0
L45.4062 0
L45.4062 8.20312
Q42.5781 3.32812 38.25 0.953125
Q33.9375 -1.42188 27.875 -1.42188
Q17.9688 -1.42188 11.7344 6.48438
Q5.51562 14.4062 5.51562 27.2969
Q5.51562 40.1875 11.7344 48.0938
Q17.9688 56 27.875 56
Q33.9375 56 38.25 53.625
Q42.5781 51.2656 45.4062 46.3906
M14.7969 27.2969
Q14.7969 17.3906 18.875 11.75
Q22.9531 6.10938 30.0781 6.10938
Q37.2031 6.10938 41.2969 11.75
Q45.4062 17.3906 45.4062 27.2969
Q45.4062 37.2031 41.2969 42.8438
Q37.2031 48.4844 30.0781 48.4844
Q22.9531 48.4844 18.875 42.8438
Q14.7969 37.2031 14.7969 27.2969" id="DejaVuSans-64"/>
      <path d="
M48.6875 27.2969
Q48.6875 37.2031 44.6094 42.8438
Q40.5312 48.4844 33.4062 48.4844
Q26.2656 48.4844 22.1875 42.8438
Q18.1094 37.2031 18.1094 27.2969
Q18.1094 17.3906 22.1875 11.75
Q26.2656 6.10938 33.4062 6.10938
Q40.5312 6.10938 44.6094 11.75
Q48.6875 17.3906 48.6875 27.2969
M18.1094 46.3906
Q20.9531 51.2656 25.2656 53.625
Q29.5938 56 35.5938 56
Q45.5625 56 51.7812 48.0938
Q58.0156 40.1875 58.0156 27.2969
Q58.0156 14.4062 51.7812 6.48438
Q45.5625 -1.42188 35.5938 -1.42188
Q29.5938 -1.42188 25.2656 0.953125
Q20.9531 3.32812 18.1094 8.20312
L18.1094 0
L9.07812 0
L9.07812 75.9844
L18.1094 75.9844
z
" id="DejaVuSans-62"/>
     </defs>
     <g transform="translate(309.020625 551.9555)scale(0.144 -0.144)">
      <use xlink:href="#DejaVuSans-73"/>
      <use x="52.099609375" xlink:href="#DejaVuSans-75"/>
      <use x="115.478515625" xlink:href="#DejaVuSans-62"/>
      <use x="178.955078125" xlink:href="#DejaVuSans-6d"/>
      <use x="276.3671875" xlink:href="#DejaVuSans-69"/>
      <use x="304.150390625" xlink:href="#DejaVuSans-74"/>
      <use x="343.359375" xlink:href="#DejaVuSans-74"/>
      <use x="382.568359375" xlink:href="#DejaVuSans-65"/>
      <use x="444.091796875" xlink:href="#DejaVuSans-64"/>
     </g>
    </g>
   </g>
   <g id="matplotlib.axis_2">
    <g id="ytick_1">
     <g id="line2d_21">
      <path clip-path="url(#pfeb518cb43)" d="
M99 518.4
L590.04 518.4" style="fill:none;stroke:#ffffff;stroke-linecap:square;stroke-width:1.4;"/>
     </g>
     <g id="line2d_22">
      <defs>
       <path d="
M0 0
L-5 0" id="m25061c5e35" style="stroke:#7f7f7f;stroke-width:1.4;"/>
      </defs>
      <g>
       <use style="fill:#7f7f7f;stroke:#7f7f7f;stroke-width:1.4;" x="99.0" xlink:href="#m25061c5e35" y="518.4"/>
      </g>
     </g>
     <g id="text_7">
      <!-- $\mathdefault{2^{-1}}$ -->
      <defs>
       <path d="
M4.89062 31.3906
L31.2031 31.3906
L31.2031 23.3906
L4.89062 23.3906
z
" id="DejaVuSans-2d"/>
      </defs>
      <g style="fill:#7f7f7f;" transform="translate(75.6 522.444375)scale(0.12 -0.12)">
       <use transform="translate(0.0 0.15312500000000284)" xlink:href="#DejaVuSans-32"/>
       <use transform="translate(63.623046875 57.965625)scale(0.7)" xlink:href="#DejaVuSans-2d"/>
       <use transform="translate(88.8818359375 57.965625)scale(0.7)" xlink:href="#DejaVuSans-31"/>
      </g>
     </g>
    </g>
    <g id="ytick_2">
     <g id="line2d_23">
      <path clip-path="url(#pfeb518cb43)" d="
M99 460.8
L590.04 460.8" style="fill:none;stroke:#ffffff;stroke-linecap:square;stroke-width:1.4;"/>
     </g>
     <g id="line2d_24">
      <g>
       <use style="fill:#7f7f7f;stroke:#7f7f7f;stroke-width:1.4;" x="99.0" xlink:href="#m25061c5e35" y="460.8"/>
      </g>
     </g>
     <g id="text_8">
      <!-- $\mathdefault{2^{0}}$ -->
      <g style="fill:#7f7f7f;" transform="translate(78.6 464.904375)scale(0.12 -0.12)">
       <use transform="translate(0.0 0.234375)" xlink:href="#DejaVuSans-32"/>
       <use transform="translate(63.623046875 58.046875)scale(0.7)" xlink:href="#DejaVuSans-30"/>
      </g>
     </g>
    </g>
    <g id="ytick_3">
     <g id="line2d_25">
      <path clip-path="url(#pfeb518cb43)" d="
M99 403.2
L590.04 403.2" style="fill:none;stroke:#ffffff;stroke-linecap:square;stroke-width:1.4;"/>
     </g>
     <g id="line2d_26">
      <g>
       <use style="fill:#7f7f7f;stroke:#7f7f7f;stroke-width:1.4;" x="99.0" xlink:href="#m25061c5e35" y="403.2"/>
      </g>
     </g>
     <g id="text_9">
      <!-- $\mathdefault{2^{1}}$ -->
      <g style="fill:#7f7f7f;" transform="translate(78.6 407.244375)scale(0.12 -0.12)">
       <use transform="translate(0.0 0.15312500000000284)" xlink:href="#DejaVuSans-32"/>
       <use transform="translate(63.623046875 57.965625)scale(0.7)" xlink:href="#DejaVuSans-31"/>
      </g>
     </g>
    </g>
    <g id="ytick_4">
     <g id="line2d_27">
      <path clip-path="url(#pfeb518cb43)" d="
M99 345.6
L590.04 345.6" style="fill:none;stroke:#ffffff;stroke-linecap:square;stroke-width:1.4;"/>
     </g>
     <g id="line2d_28">
      <g>
       <use style="fill:#7f7f7f;stroke:#7f7f7f;stroke-width:1.4;" x="99.0" xlink:href="#m25061c5e35" y="345.6"/>
      </g>
     </g>
     <g id="text_10">
      <!-- $\mathdefault{2^{2}}$ -->
      <g style="fill:#7f7f7f;" transform="translate(78.6 349.704375)scale(0.12 -0.12)">
       <use transform="translate(0.0 0.234375)" xlink:href="#DejaVuSans-32"/>
       <use transform="translate(63.623046875 58.046875)scale(0.7)" xlink:href="#DejaVuSans-32"/>
      </g>
     </g>
    </g>
    <g id="ytick_5">
     <g id="line2d_29">
      <path clip-path="url(#pfeb518cb43)" d="
M99 288
L590.04 288" style="fill:none;stroke:#ffffff;stroke-linecap:square;stroke-width:1.4;"/>
     </g>
     <g id="line2d_30">
      <g>
       <use style="fill:#7f7f7f;stroke:#7f7f7f;stroke-width:1.4;" x="99.0" xlink:href="#m25061c5e35" y="288.0"/>
      </g>
     </g>
     <g id="text_11">
      <!-- $\mathdefault{2^{3}}$ -->
      <defs>
       <path d="
M40.5781 39.3125
Q47.6562 37.7969 51.625 33
Q55.6094 28.2188 55.6094 21.1875
Q55.6094 10.4062 48.1875 4.48438
Q40.7656 -1.42188 27.0938 -1.42188
Q22.5156 -1.42188 17.6562 -0.515625
Q12.7969 0.390625 7.625 2.20312
L7.625 11.7188
Q11.7188 9.32812 16.5938 8.10938
Q21.4844 6.89062 26.8125 6.89062
Q36.0781 6.89062 40.9375 10.5469
Q45.7969 14.2031 45.7969 21.1875
Q45.7969 27.6406 41.2812 31.2656
Q36.7656 34.9062 28.7188 34.9062
L20.2188 34.9062
L20.2188 43.0156
L29.1094 43.0156
Q36.375 43.0156 40.2344 45.9219
Q44.0938 48.8281 44.0938 54.2969
Q44.0938 59.9062 40.1094 62.9062
Q36.1406 65.9219 28.7188 65.9219
Q24.6562 65.9219 20.0156 65.0312
Q15.375 64.1562 9.8125 62.3125
L9.8125 71.0938
Q15.4375 72.6562 20.3438 73.4375
Q25.25 74.2188 29.5938 74.2188
Q40.8281 74.2188 47.3594 69.1094
Q53.9062 64.0156 53.9062 55.3281
Q53.9062 49.2656 50.4375 45.0938
Q46.9688 40.9219 40.5781 39.3125" id="DejaVuSans-33"/>
      </defs>
      <g style="fill:#7f7f7f;" transform="translate(78.6 292.104375)scale(0.12 -0.12)">
       <use transform="translate(0.0 0.234375)" xlink:href="#DejaVuSans-32"/>
       <use transform="translate(63.623046875 58.046875)scale(0.7)" xlink:href="#DejaVuSans-33"/>
      </g>
     </g>
    </g>
    <g id="ytick_6">
     <g id="line2d_31">
      <path clip-path="url(#pfeb518cb43)" d="
M99 230.4
L590.04 230.4" style="fill:none;stroke:#ffffff;stroke-linecap:square;stroke-width:1.4;"/>
     </g>
     <g id="line2d_32">
      <g>
       <use style="fill:#7f7f7f;stroke:#7f7f7f;stroke-width:1.4;" x="99.0" xlink:href="#m25061c5e35" y="230.4"/>
      </g>
     </g>
     <g id="text_12">
      <!-- $\mathdefault{2^{4}}$ -->
      <defs>
       <path d="
M37.7969 64.3125
L12.8906 25.3906
L37.7969 25.3906
z

M35.2031 72.9062
L47.6094 72.9062
L47.6094 25.3906
L58.0156 25.3906
L58.0156 17.1875
L47.6094 17.1875
L47.6094 0
L37.7969 0
L37.7969 17.1875
L4.89062 17.1875
L4.89062 26.7031
z
" id="DejaVuSans-34"/>
      </defs>
      <g style="fill:#7f7f7f;" transform="translate(78.6 234.444375)scale(0.12 -0.12)">
       <use transform="translate(0.0 0.15312500000000284)" xlink:href="#DejaVuSans-32"/>
       <use transform="translate(63.623046875 57.965625)scale(0.7)" xlink:href="#DejaVuSans-34"/>
      </g>
     </g>
    </g>
    <g id="ytick_7">
     <g id="line2d_33">
      <path clip-path="url(#pfeb518cb43)" d="
M99 172.8
L590.04 172.8" style="fill:none;stroke:#ffffff;stroke-linecap:square;stroke-width:1.4;"/>
     </g>
     <g id="line2d_34">
      <g>
       <use style="fill:#7f7f7f;stroke:#7f7f7f;stroke-width:1.4;" x="99.0" xlink:href="#m25061c5e35" y="172.8"/>
      </g>
     </g>
     <g id="text_13">
      <!-- $\mathdefault{2^{5}}$ -->
      <g style="fill:#7f7f7f;" transform="translate(78.6 176.844375)scale(0.12 -0.12)">
       <use transform="translate(0.0 0.15312500000000284)" xlink:href="#DejaVuSans-32"/>
       <use transform="translate(63.623046875 57.965625)scale(0.7)" xlink:href="#DejaVuSans-35"/>
      </g>
     </g>
    </g>
    <g id="ytick_8">
     <g id="line2d_35">
      <path clip-path="url(#pfeb518cb43)" d="
M99 115.2
L590.04 115.2" style="fill:none;stroke:#ffffff;stroke-linecap:square;stroke-width:1.4;"/>
     </g>
     <g id="line2d_36">
      <g>
       <use style="fill:#7f7f7f;stroke:#7f7f7f;stroke-width:1.4;" x="99.0" xlink:href="#m25061c5e35" y="115.2"/>
      </g>
     </g>
     <g id="text_14">
      <!-- $\mathdefault{2^{6}}$ -->
      <defs>
       <path d="
M33.0156 40.375
Q26.375 40.375 22.4844 35.8281
Q18.6094 31.2969 18.6094 23.3906
Q18.6094 15.5312 22.4844 10.9531
Q26.375 6.39062 33.0156 6.39062
Q39.6562 6.39062 43.5312 10.9531
Q47.4062 15.5312 47.4062 23.3906
Q47.4062 31.2969 43.5312 35.8281
Q39.6562 40.375 33.0156 40.375
M52.5938 71.2969
L52.5938 62.3125
Q48.875 64.0625 45.0938 64.9844
Q41.3125 65.9219 37.5938 65.9219
Q27.8281 65.9219 22.6719 59.3281
Q17.5312 52.7344 16.7969 39.4062
Q19.6719 43.6562 24.0156 45.9219
Q28.375 48.1875 33.5938 48.1875
Q44.5781 48.1875 50.9531 41.5156
Q57.3281 34.8594 57.3281 23.3906
Q57.3281 12.1562 50.6875 5.35938
Q44.0469 -1.42188 33.0156 -1.42188
Q20.3594 -1.42188 13.6719 8.26562
Q6.98438 17.9688 6.98438 36.375
Q6.98438 53.6562 15.1875 63.9375
Q23.3906 74.2188 37.2031 74.2188
Q40.9219 74.2188 44.7031 73.4844
Q48.4844 72.75 52.5938 71.2969" id="DejaVuSans-36"/>
      </defs>
      <g style="fill:#7f7f7f;" transform="translate(78.6 119.304375)scale(0.12 -0.12)">
       <use transform="translate(0.0 0.234375)" xlink:href="#DejaVuSans-32"/>
       <use transform="translate(63.623046875 58.046875)scale(0.7)" xlink:href="#DejaVuSans-36"/>
      </g>
     </g>
    </g>
    <g id="ytick_9">
     <g id="line2d_37">
      <path clip-path="url(#pfeb518cb43)" d="
M99 57.6
L590.04 57.6" style="fill:none;stroke:#ffffff;stroke-linecap:square;stroke-width:1.4;"/>
     </g>
     <g id="line2d_38">
      <g>
       <use style="fill:#7f7f7f;stroke:#7f7f7f;stroke-width:1.4;" x="99.0" xlink:href="#m25061c5e35" y="57.6"/>
      </g>
     </g>
     <g id="text_15">
      <!-- $\mathdefault{2^{7}}$ -->
      <defs>
       <path d="
M8.20312 72.9062
L55.0781 72.9062
L55.0781 68.7031
L28.6094 0
L18.3125 0
L43.2188 64.5938
L8.20312 64.5938
z
" id="DejaVuSans-37"/>
      </defs>
      <g style="fill:#7f7f7f;" transform="translate(78.6 61.644375)scale(0.12 -0.12)">
       <use transform="translate(0.0 0.15312500000000284)" xlink:href="#DejaVuSans-32"/>
       <use transform="translate(63.623046875 57.965625)scale(0.7)" xlink:href="#DejaVuSans-37"/>
      </g>
     </g>
    </g>
    <g id="ytick_10">
     <g id="line2d_39">
      <path clip-path="url(#pfeb518cb43)" d="
M99 518.4
L590.04 518.4" style="fill:none;stroke:#f2f2f2;stroke-linecap:square;stroke-width:0.7;"/>
     </g>
     <g id="line2d_40">
      <g>
       <use style="fill:#7f7f7f;stroke:#7f7f7f;stroke-width:0.5;" x="99.0" xlink:href="#m5e2150a77a" y="518.4"/>
      </g>
     </g>
    </g>
    <g id="ytick_11">
     <g id="line2d_41">
      <path clip-path="url(#pfeb518cb43)" d="
M99 460.8
L590.04 460.8" style="fill:none;stroke:#f2f2f2;stroke-linecap:square;stroke-width:0.7;"/>
     </g>
     <g id="line2d_42">
      <g>
       <use style="fill:#7f7f7f;stroke:#7f7f7f;stroke-width:0.5;" x="99.0" xlink:href="#m5e2150a77a" y="460.8"/>
      </g>
     </g>
    </g>
    <g id="ytick_12">
     <g id="line2d_43">
      <path clip-path="url(#pfeb518cb43)" d="
M99 403.2
L590.04 403.2" style="fill:none;stroke:#f2f2f2;stroke-linecap:square;stroke-width:0.7;"/>
     </g>
     <g id="line2d_44">
      <g>
       <use style="fill:#7f7f7f;stroke:#7f7f7f;stroke-width:0.5;" x="99.0" xlink:href="#m5e2150a77a" y="403.2"/>
      </g>
     </g>
    </g>
    <g id="ytick_13">
     <g id="line2d_45">
      <path clip-path="url(#pfeb518cb43)" d="
M99 345.6
L590.04 345.6" style="fill:none;stroke:#f2f2f2;stroke-linecap:square;stroke-width:0.7;"/>
     </g>
     <g id="line2d_46">
      <g>
       <use style="fill:#7f7f7f;stroke:#7f7f7f;stroke-width:0.5;" x="99.0" xlink:href="#m5e2150a77a" y="345.6"/>
      </g>
     </g>
    </g>
    <g id="ytick_14">
     <g id="line2d_47">
      <path clip-path="url(#pfeb518cb43)" d="
M99 288
L590.04 288" style="fill:none;stroke:#f2f2f2;stroke-linecap:square;stroke-width:0.7;"/>
     </g>
     <g id="line2d_48">
      <g>
       <use style="fill:#7f7f7f;stroke:#7f7f7f;stroke-width:0.5;" x="99.0" xlink:href="#m5e2150a77a" y="288.0"/>
      </g>
     </g>
    </g>
    <g id="ytick_15">
     <g id="line2d_49">
      <path clip-path="url(#pfeb518cb43)" d="
M99 230.4
L590.04 230.4" style="fill:none;stroke:#f2f2f2;stroke-linecap:square;stroke-width:0.7;"/>
     </g>
     <g id="line2d_50">
      <g>
       <use style="fill:#7f7f7f;stroke:#7f7f7f;stroke-width:0.5;" x="99.0" xlink:href="#m5e2150a77a" y="230.4"/>
      </g>
     </g>
    </g>
    <g id="ytick_16">
     <g id="line2d_51">
      <path clip-path="url(#pfeb518cb43)" d="
M99 172.8
L590.04 172.8" style="fill:none;stroke:#f2f2f2;stroke-linecap:square;stroke-width:0.7;"/>
     </g>
     <g id="line2d_52">
      <g>
       <use style="fill:#7f7f7f;stroke:#7f7f7f;stroke-width:0.5;" x="99.0" xlink:href="#m5e2150a77a" y="172.8"/>
      </g>
     </g>
    </g>
    <g id="ytick_17">
     <g id="line2d_53">
      <path clip-path="url(#pfeb518cb43)" d="
M99 115.2
L590.04 115.2" style="fill:none;stroke:#f2f2f2;stroke-linecap:square;stroke-width:0.7;"/>
     </g>
     <g id="line2d_54">
      <g>
       <use style="fill:#7f7f7f;stroke:#7f7f7f;stroke-width:0.5;" x="99.0" xlink:href="#m5e2150a77a" y="115.2"/>
      </g>
     </g>
    </g>
    <g id="ytick_18">
     <g id="line2d_55">
      <path clip-path="url(#pfeb518cb43)" d="
M99 57.6
L590.04 57.6" style="fill:none;stroke:#f2f2f2;stroke-linecap:square;stroke-width:0.7;"/>
     </g>
     <g id="line2d_56">
      <g>
       <use style="fill:#7f7f7f;stroke:#7f7f7f;stroke-width:0.5;" x="99.0" xlink:href="#m5e2150a77a" y="57.6"/>
      </g>
     </g>
    </g>
    <g id="text_16">
     <!-- cores_used -->
     <defs>
      <path d="
M50.9844 -16.6094
L50.9844 -23.5781
L-0.984375 -23.5781
L-0.984375 -16.6094
z
" id="DejaVuSans-5f"/>
      <path d="
M41.1094 46.2969
Q39.5938 47.1719 37.8125 47.5781
Q36.0312 48 33.8906 48
Q26.2656 48 22.1875 43.0469
Q18.1094 38.0938 18.1094 28.8125
L18.1094 0
L9.07812 0
L9.07812 54.6875
L18.1094 54.6875
L18.1094 46.1875
Q20.9531 51.1719 25.4844 53.5781
Q30.0312 56 36.5312 56
Q37.4531 56 38.5781 55.875
Q39.7031 55.7656 41.0625 55.5156
z
" id="DejaVuSans-72"/>
      <path d="
M30.6094 48.3906
Q23.3906 48.3906 19.1875 42.75
Q14.9844 37.1094 14.9844 27.2969
Q14.9844 17.4844 19.1562 11.8438
Q23.3438 6.20312 30.6094 6.20312
Q37.7969 6.20312 41.9844 11.8594
Q46.1875 17.5312 46.1875 27.2969
Q46.1875 37.0156 41.9844 42.7031
Q37.7969 48.3906 30.6094 48.3906
M30.6094 56
Q42.3281 56 49.0156 48.375
Q55.7188 40.7656 55.7188 27.2969
Q55.7188 13.875 49.0156 6.21875
Q42.3281 -1.42188 30.6094 -1.42188
Q18.8438 -1.42188 12.1719 6.21875
Q5.51562 13.875 5.51562 27.2969
Q5.51562 40.7656 12.1719 48.375
Q18.8438 56 30.6094 56" id="DejaVuSans-6f"/>
     </defs>
     <g transform="translate(67.20475 327.20625)rotate(-90.0)scale(0.144 -0.144)">
      <use xlink:href="#DejaVuSans-63"/>
      <use x="54.98046875" xlink:href="#DejaVuSans-6f"/>
      <use x="116.162109375" xlink:href="#DejaVuSans-72"/>
      <use x="155.025390625" xlink:href="#DejaVuSans-65"/>
      <use x="216.548828125" xlink:href="#DejaVuSans-73"/>
      <use x="268.6484375" xlink:href="#DejaVuSans-5f"/>
      <use x="318.6484375" xlink:href="#DejaVuSans-75"/>
      <use x="382.02734375" xlink:href="#DejaVuSans-73"/>
      <use x="434.126953125" xlink:href="#DejaVuSans-65"/>
      <use x="495.650390625" xlink:href="#DejaVuSans-64"/>
     </g>
    </g>
   </g>
   <g id="PathCollection_1">
    <defs>
     <path d="
M0 2.23607
C0.593012 2.23607 1.16182 2.00046 1.58114 1.58114
C2.00046 1.16182 2.23607 0.593012 2.23607 0
C2.23607 -0.593012 2.00046 -1.16182 1.58114 -1.58114
C1.16182 -2.00046 0.593012 -2.23607 0 -2.23607
C-0.593012 -2.23607 -1.16182 -2.00046 -1.58114 -1.58114
C-2.00046 -1.16182 -2.23607 -0.593012 -2.23607 0
C-2.23607 0.593012 -2.00046 1.16182 -1.58114 1.58114
C-1.16182 2.00046 -0.593012 2.23607 0 2.23607
z
" id="C0_0_919e3f95db"/>
    </defs>
    <g clip-path="url(#pfeb518cb43)">
     <use style="fill:#57d3db;stroke:#57d3db;stroke-width:0.5;" x="157.772915799" xlink:href="#C0_0_919e3f95db" y="62.9631016929"/>
    </g>
    <g clip-path="url(#pfeb518cb43)">
     <use style="fill:#57d3db;stroke:#57d3db;stroke-width:0.5;" x="157.81261518" xlink:href="#C0_0_919e3f95db" y="62.9631016929"/>
    </g>
    <g clip-path="url(#pfeb518cb43)">
     <use style="fill:#57d3db;stroke:#57d3db;stroke-width:0.5;" x="157.833567634" xlink:href="#C0_0_919e3f95db" y="62.9631016929"/>
    </g>
    <g clip-path="url(#pfeb518cb43)">
     <use style="fill:#57d3db;stroke:#57d3db;stroke-width:0.5;" x="157.853732402" xlink:href="#C0_0_919e3f95db" y="62.9631016929"/>
    </g>
    <g clip-path="url(#pfeb518cb43)">
     <use style="fill:#57d3db;stroke:#57d3db;stroke-width:0.5;" x="158.653233886" xlink:href="#C0_0_919e3f95db" y="460.8"/>
    </g>
    <g clip-path="url(#pfeb518cb43)">
     <use style="fill:#57d3db;stroke:#57d3db;stroke-width:0.5;" x="158.66946022" xlink:href="#C0_0_919e3f95db" y="460.8"/>
    </g>
    <g clip-path="url(#pfeb518cb43)">
     <use style="fill:#57d3db;stroke:#57d3db;stroke-width:0.5;" x="158.680487828" xlink:href="#C0_0_919e3f95db" y="460.8"/>
    </g>
    <g clip-path="url(#pfeb518cb43)">
     <use style="fill:#57d3db;stroke:#57d3db;stroke-width:0.5;" x="158.687104393" xlink:href="#C0_0_919e3f95db" y="460.8"/>
    </g>
    <g clip-path="url(#pfeb518cb43)">
     <use style="fill:#57d3db;stroke:#57d3db;stroke-width:0.5;" x="158.829360519" xlink:href="#C0_0_919e3f95db" y="460.8"/>
    </g>
    <g clip-path="url(#pfeb518cb43)">
     <use style="fill:#57d3db;stroke:#57d3db;stroke-width:0.5;" x="173.724506408" xlink:href="#C0_0_919e3f95db" y="460.8"/>
    </g>
    <g clip-path="url(#pfeb518cb43)">
     <use style="fill:#57d3db;stroke:#57d3db;stroke-width:0.5;" x="408.24058341" xlink:href="#C0_0_919e3f95db" y="460.8"/>
    </g>
    <g clip-path="url(#pfeb518cb43)">
     <use style="fill:#57d3db;stroke:#57d3db;stroke-width:0.5;" x="408.321400015" xlink:href="#C0_0_919e3f95db" y="460.8"/>
    </g>
    <g clip-path="url(#pfeb518cb43)">
     <use style="fill:#57d3db;stroke:#57d3db;stroke-width:0.5;" x="408.378743568" xlink:href="#C0_0_919e3f95db" y="460.8"/>
    </g>
    <g clip-path="url(#pfeb518cb43)">
     <use style="fill:#57d3db;stroke:#57d3db;stroke-width:0.5;" x="408.38835334" xlink:href="#C0_0_919e3f95db" y="460.8"/>
    </g>
    <g clip-path="url(#pfeb518cb43)">
     <use style="fill:#57d3db;stroke:#57d3db;stroke-width:0.5;" x="408.398908336" xlink:href="#C0_0_919e3f95db" y="460.8"/>
    </g>
    <g clip-path="url(#pfeb518cb43)">
     <use style="fill:#57d3db;stroke:#57d3db;stroke-width:0.5;" x="408.407887958" xlink:href="#C0_0_919e3f95db" y="460.8"/>
    </g>
    <g clip-path="url(#pfeb518cb43)">
     <use style="fill:#57d3db;stroke:#57d3db;stroke-width:0.5;" x="408.433408991" xlink:href="#C0_0_919e3f95db" y="460.8"/>
    </g>
    <g clip-path="url(#pfeb518cb43)">
     <use style="fill:#57d3db;stroke:#57d3db;stroke-width:0.5;" x="408.440655705" xlink:href="#C0_0_919e3f95db" y="460.8"/>
    </g>
    <g clip-path="url(#pfeb518cb43)">
     <use style="fill:#57d3db;stroke:#57d3db;stroke-width:0.5;" x="408.452628534" xlink:href="#C0_0_919e3f95db" y="460.8"/>
    </g>
    <g clip-path="url(#pfeb518cb43)">
     <use style="fill:#db5f57;stroke:#db5f57;stroke-width:0.5;" x="160.727999315" xlink:href="#C0_0_919e3f95db" y="230.4"/>
    </g>
    <g clip-path="url(#pfeb518cb43)">
     <use style="fill:#db5f57;stroke:#db5f57;stroke-width:0.5;" x="160.735561103" xlink:href="#C0_0_919e3f95db" y="230.4"/>
    </g>
    <g clip-path="url(#pfeb518cb43)">
     <use style="fill:#db5f57;stroke:#db5f57;stroke-width:0.5;" x="160.744068114" xlink:href="#C0_0_919e3f95db" y="230.4"/>
    </g>
    <g clip-path="url(#pfeb518cb43)">
     <use style="fill:#db5f57;stroke:#db5f57;stroke-width:0.5;" x="174.797177464" xlink:href="#C0_0_919e3f95db" y="230.4"/>
    </g>
    <g clip-path="url(#pfeb518cb43)">
     <use style="fill:#db5f57;stroke:#db5f57;stroke-width:0.5;" x="245.498157138" xlink:href="#C0_0_919e3f95db" y="460.8"/>
    </g>
    <g clip-path="url(#pfeb518cb43)">
     <use style="fill:#db5f57;stroke:#db5f57;stroke-width:0.5;" x="245.515801311" xlink:href="#C0_0_919e3f95db" y="460.8"/>
    </g>
    <g clip-path="url(#pfeb518cb43)">
     <use style="fill:#db5f57;stroke:#db5f57;stroke-width:0.5;" x="311.611337358" xlink:href="#C0_0_919e3f95db" y="460.8"/>
    </g>
    <g clip-path="url(#pfeb518cb43)">
     <use style="fill:#db5f57;stroke:#db5f57;stroke-width:0.5;" x="311.613385342" xlink:href="#C0_0_919e3f95db" y="460.8"/>
    </g>
    <g clip-path="url(#pfeb518cb43)">
     <use style="fill:#db5f57;stroke:#db5f57;stroke-width:0.5;" x="311.616378549" xlink:href="#C0_0_919e3f95db" y="460.8"/>
    </g>
    <g clip-path="url(#pfeb518cb43)">
     <use style="fill:#db5f57;stroke:#db5f57;stroke-width:0.5;" x="311.61811146" xlink:href="#C0_0_919e3f95db" y="460.8"/>
    </g>
    <g clip-path="url(#pfeb518cb43)">
     <use style="fill:#db5f57;stroke:#db5f57;stroke-width:0.5;" x="311.624728022" xlink:href="#C0_0_919e3f95db" y="460.8"/>
    </g>
    <g clip-path="url(#pfeb518cb43)">
     <use style="fill:#db5f57;stroke:#db5f57;stroke-width:0.5;" x="459.312895797" xlink:href="#C0_0_919e3f95db" y="230.4"/>
    </g>
    <g clip-path="url(#pfeb518cb43)">
     <use style="fill:#db5f57;stroke:#db5f57;stroke-width:0.5;" x="459.36220495" xlink:href="#C0_0_919e3f95db" y="230.4"/>
    </g>
    <g clip-path="url(#pfeb518cb43)">
     <use style="fill:#db5f57;stroke:#db5f57;stroke-width:0.5;" x="459.380794346" xlink:href="#C0_0_919e3f95db" y="230.4"/>
    </g>
    <g clip-path="url(#pfeb518cb43)">
     <use style="fill:#db5f57;stroke:#db5f57;stroke-width:0.5;" x="459.581024176" xlink:href="#C0_0_919e3f95db" y="403.2"/>
    </g>
    <g clip-path="url(#pfeb518cb43)">
     <use style="fill:#db5f57;stroke:#db5f57;stroke-width:0.5;" x="459.58937365" xlink:href="#C0_0_919e3f95db" y="230.4"/>
    </g>
    <g clip-path="url(#pfeb518cb43)">
     <use style="fill:#db5f57;stroke:#db5f57;stroke-width:0.5;" x="461.179554533" xlink:href="#C0_0_919e3f95db" y="230.4"/>
    </g>
    <g clip-path="url(#pfeb518cb43)">
     <use style="fill:#db5f57;stroke:#db5f57;stroke-width:0.5;" x="462.468839293" xlink:href="#C0_0_919e3f95db" y="230.4"/>
    </g>
    <g clip-path="url(#pfeb518cb43)">
     <use style="fill:#db5f57;stroke:#db5f57;stroke-width:0.5;" x="531.046689607" xlink:href="#C0_0_919e3f95db" y="460.8"/>
    </g>
    <g clip-path="url(#pfeb518cb43)">
     <use style="fill:#db5f57;stroke:#db5f57;stroke-width:0.5;" x="531.267084202" xlink:href="#C0_0_919e3f95db" y="460.8"/>
    </g>
   </g>
   <g id="patch_3">
    <path d="
M590.04 518.4
L590.04 57.6" style="fill:none;opacity:0;"/>
   </g>
   <g id="patch_4">
    <path d="
M99 518.4
L99 57.6" style="fill:none;opacity:0;"/>
   </g>
   <g id="patch_5">
    <path d="
M99 518.4
L590.04 518.4" style="fill:none;opacity:0;"/>
   </g>
   <g id="patch_6">
    <path d="
M99 57.6
L590.04 57.6" style="fill:none;opacity:0;"/>
   </g>
   <g id="text_17">
    <!--  Username  -->
    <defs>
     <path d="
M51.125 52.9844
L51.125 39.7031
Q45.5156 42.0469 40.2812 43.2188
Q35.0625 44.3906 30.4219 44.3906
Q25.4375 44.3906 23.0156 43.1406
Q20.6094 41.8906 20.6094 39.3125
Q20.6094 37.2031 22.4375 36.0781
Q24.2656 34.9688 29 34.4219
L32.0781 33.9844
Q45.5156 32.2812 50.1406 28.375
Q54.7812 24.4688 54.7812 16.1094
Q54.7812 7.375 48.3281 2.96875
Q41.8906 -1.42188 29.1094 -1.42188
Q23.6875 -1.42188 17.8906 -0.5625
Q12.1094 0.296875 6 2
L6 15.2812
Q11.2344 12.75 16.7188 11.4688
Q22.2188 10.2031 27.875 10.2031
Q33.0156 10.2031 35.5938 11.6094
Q38.1875 13.0312 38.1875 15.8281
Q38.1875 18.1719 36.4062 19.3125
Q34.625 20.4531 29.2969 21.0938
L26.2188 21.4844
Q14.5469 22.9531 9.85938 26.9062
Q5.17188 30.8594 5.17188 38.9219
Q5.17188 47.6094 11.125 51.7969
Q17.0938 56 29.3906 56
Q34.2344 56 39.5469 55.2656
Q44.875 54.5469 51.125 52.9844" id="DejaVuSans-Bold-73"/>
     <path d="
M63.375 33.2969
L63.375 0
L45.7969 0
L45.7969 5.42188
L45.7969 25.4844
Q45.7969 32.5625 45.4844 35.25
Q45.1719 37.9375 44.3906 39.2031
Q43.3594 40.9219 41.5938 41.875
Q39.8438 42.8281 37.5938 42.8281
Q32.125 42.8281 29 38.5938
Q25.875 34.375 25.875 26.9062
L25.875 0
L8.40625 0
L8.40625 54.6875
L25.875 54.6875
L25.875 46.6875
Q29.8281 51.4688 34.2656 53.7344
Q38.7188 56 44.0938 56
Q53.5625 56 58.4688 50.1875
Q63.375 44.3906 63.375 33.2969" id="DejaVuSans-Bold-6e"/>
     <path id="DejaVuSans-Bold-20"/>
     <path d="
M49.0312 39.7969
Q46.7344 40.875 44.4531 41.375
Q42.1875 41.8906 39.8906 41.8906
Q33.1562 41.8906 29.5156 37.5625
Q25.875 33.25 25.875 25.2031
L25.875 0
L8.40625 0
L8.40625 54.6875
L25.875 54.6875
L25.875 45.7031
Q29.25 51.0781 33.6094 53.5312
Q37.9844 56 44.0938 56
Q44.9688 56 45.9844 55.9219
Q47.0156 55.8594 48.9688 55.6094
z
" id="DejaVuSans-Bold-72"/>
     <path d="
M59.0781 45.6094
Q62.4062 50.6875 66.9688 53.3438
Q71.5312 56 77 56
Q86.4219 56 91.3594 50.1875
Q96.2969 44.3906 96.2969 33.2969
L96.2969 0
L78.7188 0
L78.7188 28.5156
Q78.7656 29.1562 78.7812 29.8281
Q78.8125 30.5156 78.8125 31.7812
Q78.8125 37.5938 77.0938 40.2031
Q75.3906 42.8281 71.5781 42.8281
Q66.6094 42.8281 63.8906 38.7188
Q61.1875 34.625 61.0781 26.8594
L61.0781 0
L43.5 0
L43.5 28.5156
Q43.5 37.5938 41.9375 40.2031
Q40.375 42.8281 36.375 42.8281
Q31.3438 42.8281 28.6094 38.7031
Q25.875 34.5781 25.875 26.9062
L25.875 0
L8.29688 0
L8.29688 54.6875
L25.875 54.6875
L25.875 46.6875
Q29.1094 51.3125 33.2812 53.6562
Q37.4531 56 42.4844 56
Q48.1406 56 52.4844 53.2656
Q56.8438 50.5312 59.0781 45.6094" id="DejaVuSans-Bold-6d"/>
     <path d="
M32.9062 24.6094
Q27.4375 24.6094 24.6719 22.75
Q21.9219 20.9062 21.9219 17.2812
Q21.9219 13.9688 24.1406 12.0781
Q26.375 10.2031 30.3281 10.2031
Q35.25 10.2031 38.625 13.7344
Q42 17.2812 42 22.6094
L42 24.6094
z

M59.625 31.2031
L59.625 0
L42 0
L42 8.10938
Q38.4844 3.125 34.0781 0.84375
Q29.6875 -1.42188 23.3906 -1.42188
Q14.8906 -1.42188 9.59375 3.53125
Q4.29688 8.5 4.29688 16.4062
Q4.29688 26.0312 10.9062 30.5156
Q17.5312 35.0156 31.6875 35.0156
L42 35.0156
L42 36.375
Q42 40.5312 38.7188 42.4531
Q35.4531 44.3906 28.5156 44.3906
Q22.9062 44.3906 18.0625 43.2656
Q13.2344 42.1406 9.07812 39.8906
L9.07812 53.2188
Q14.7031 54.5938 20.3594 55.2969
Q26.0312 56 31.6875 56
Q46.4844 56 53.0469 50.1719
Q59.625 44.3438 59.625 31.2031" id="DejaVuSans-Bold-61"/>
     <path d="
M9.1875 72.9062
L27.9844 72.9062
L27.9844 29.2031
Q27.9844 20.1719 30.9375 16.2812
Q33.8906 12.4062 40.5781 12.4062
Q47.3125 12.4062 50.2656 16.2812
Q53.2188 20.1719 53.2188 29.2031
L53.2188 72.9062
L72.0156 72.9062
L72.0156 29.2031
Q72.0156 13.7188 64.25 6.14062
Q56.5 -1.42188 40.5781 -1.42188
Q24.7031 -1.42188 16.9375 6.14062
Q9.1875 13.7188 9.1875 29.2031
z
" id="DejaVuSans-Bold-55"/>
     <path d="
M62.9844 27.4844
L62.9844 22.5156
L22.125 22.5156
Q22.75 16.3594 26.5625 13.2812
Q30.375 10.2031 37.2031 10.2031
Q42.7188 10.2031 48.5 11.8438
Q54.2969 13.4844 60.4062 16.7969
L60.4062 3.32812
Q54.2031 0.984375 48 -0.21875
Q41.7969 -1.42188 35.5938 -1.42188
Q20.75 -1.42188 12.5156 6.125
Q4.29688 13.6719 4.29688 27.2969
Q4.29688 40.6719 12.375 48.3281
Q20.4531 56 34.625 56
Q47.5156 56 55.25 48.2344
Q62.9844 40.4844 62.9844 27.4844
M45.0156 33.2969
Q45.0156 38.2812 42.1094 41.3281
Q39.2031 44.3906 34.5156 44.3906
Q29.4375 44.3906 26.2656 41.5312
Q23.0938 38.6719 22.3125 33.2969
z
" id="DejaVuSans-Bold-65"/>
    </defs>
    <g transform="translate(597.24 73.918125)scale(0.12 -0.12)">
     <use xlink:href="#DejaVuSans-Bold-20"/>
     <use x="34.814453125" xlink:href="#DejaVuSans-Bold-55"/>
     <use x="116.015625" xlink:href="#DejaVuSans-Bold-73"/>
     <use x="175.537109375" xlink:href="#DejaVuSans-Bold-65"/>
     <use x="243.359375" xlink:href="#DejaVuSans-Bold-72"/>
     <use x="292.67578125" xlink:href="#DejaVuSans-Bold-6e"/>
     <use x="363.8671875" xlink:href="#DejaVuSans-Bold-61"/>
     <use x="431.34765625" xlink:href="#DejaVuSans-Bold-6d"/>
     <use x="535.546875" xlink:href="#DejaVuSans-Bold-65"/>
     <use x="603.369140625" xlink:href="#DejaVuSans-Bold-20"/>
    </g>
   </g>
   <g id="patch_7">
    <path d="
M602.24 96.9137
L622.24 96.9137
L622.24 90.9137
L602.24 90.9137
z
" style="fill:#db5f57;stroke:#e5e5e5;stroke-width:0.5;"/>
   </g>
   <g id="text_18">
    <!-- Dkennedy -->
    <defs>
     <path d="
M32.1719 -5.07812
Q28.375 -14.8438 24.75 -17.8125
Q21.1406 -20.7969 15.0938 -20.7969
L7.90625 -20.7969
L7.90625 -13.2812
L13.1875 -13.2812
Q16.8906 -13.2812 18.9375 -11.5156
Q21 -9.76562 23.4844 -3.21875
L25.0938 0.875
L2.98438 54.6875
L12.5 54.6875
L29.5938 11.9219
L46.6875 54.6875
L56.2031 54.6875
z
" id="DejaVuSans-79"/>
     <path d="
M54.8906 33.0156
L54.8906 0
L45.9062 0
L45.9062 32.7188
Q45.9062 40.4844 42.875 44.3281
Q39.8438 48.1875 33.7969 48.1875
Q26.5156 48.1875 22.3125 43.5469
Q18.1094 38.9219 18.1094 30.9062
L18.1094 0
L9.07812 0
L9.07812 54.6875
L18.1094 54.6875
L18.1094 46.1875
Q21.3438 51.125 25.7031 53.5625
Q30.0781 56 35.7969 56
Q45.2188 56 50.0469 50.1719
Q54.8906 44.3438 54.8906 33.0156" id="DejaVuSans-6e"/>
     <path d="
M9.07812 75.9844
L18.1094 75.9844
L18.1094 31.1094
L44.9219 54.6875
L56.3906 54.6875
L27.3906 29.1094
L57.625 0
L45.9062 0
L18.1094 26.7031
L18.1094 0
L9.07812 0
z
" id="DejaVuSans-6b"/>
     <path d="
M19.6719 64.7969
L19.6719 8.10938
L31.5938 8.10938
Q46.6875 8.10938 53.6875 14.9375
Q60.6875 21.7812 60.6875 36.5312
Q60.6875 51.1719 53.6875 57.9844
Q46.6875 64.7969 31.5938 64.7969
z

M9.8125 72.9062
L30.0781 72.9062
Q51.2656 72.9062 61.1719 64.0938
Q71.0938 55.2812 71.0938 36.5312
Q71.0938 17.6719 61.125 8.82812
Q51.1719 0 30.0781 0
L9.8125 0
z
" id="DejaVuSans-44"/>
    </defs>
    <g transform="translate(632.24 97.225)scale(0.12 -0.12)">
     <use xlink:href="#DejaVuSans-44"/>
     <use x="77.001953125" xlink:href="#DejaVuSans-6b"/>
     <use x="131.287109375" xlink:href="#DejaVuSans-65"/>
     <use x="192.810546875" xlink:href="#DejaVuSans-6e"/>
     <use x="256.189453125" xlink:href="#DejaVuSans-6e"/>
     <use x="319.568359375" xlink:href="#DejaVuSans-65"/>
     <use x="381.091796875" xlink:href="#DejaVuSans-64"/>
     <use x="444.568359375" xlink:href="#DejaVuSans-79"/>
    </g>
   </g>
   <g id="patch_8">
    <path d="
M602.24 121.914
L622.24 121.914
L622.24 115.914
L602.24 115.914
z
" style="fill:#57d3db;stroke:#e5e5e5;stroke-width:0.5;"/>
   </g>
   <g id="text_19">
    <!-- Ischeepers -->
    <defs>
     <path d="
M54.8906 33.0156
L54.8906 0
L45.9062 0
L45.9062 32.7188
Q45.9062 40.4844 42.875 44.3281
Q39.8438 48.1875 33.7969 48.1875
Q26.5156 48.1875 22.3125 43.5469
Q18.1094 38.9219 18.1094 30.9062
L18.1094 0
L9.07812 0
L9.07812 75.9844
L18.1094 75.9844
L18.1094 46.1875
Q21.3438 51.125 25.7031 53.5625
Q30.0781 56 35.7969 56
Q45.2188 56 50.0469 50.1719
Q54.8906 44.3438 54.8906 33.0156" id="DejaVuSans-68"/>
     <path d="
M9.8125 72.9062
L19.6719 72.9062
L19.6719 0
L9.8125 0
z
" id="DejaVuSans-49"/>
     <path d="
M18.1094 8.20312
L18.1094 -20.7969
L9.07812 -20.7969
L9.07812 54.6875
L18.1094 54.6875
L18.1094 46.3906
Q20.9531 51.2656 25.2656 53.625
Q29.5938 56 35.5938 56
Q45.5625 56 51.7812 48.0938
Q58.0156 40.1875 58.0156 27.2969
Q58.0156 14.4062 51.7812 6.48438
Q45.5625 -1.42188 35.5938 -1.42188
Q29.5938 -1.42188 25.2656 0.953125
Q20.9531 3.32812 18.1094 8.20312
M48.6875 27.2969
Q48.6875 37.2031 44.6094 42.8438
Q40.5312 48.4844 33.4062 48.4844
Q26.2656 48.4844 22.1875 42.8438
Q18.1094 37.2031 18.1094 27.2969
Q18.1094 17.3906 22.1875 11.75
Q26.2656 6.10938 33.4062 6.10938
Q40.5312 6.10938 44.6094 11.75
Q48.6875 17.3906 48.6875 27.2969" id="DejaVuSans-70"/>
    </defs>
    <g transform="translate(632.24 122.225)scale(0.12 -0.12)">
     <use xlink:href="#DejaVuSans-49"/>
     <use x="29.4921875" xlink:href="#DejaVuSans-73"/>
     <use x="81.591796875" xlink:href="#DejaVuSans-63"/>
     <use x="136.572265625" xlink:href="#DejaVuSans-68"/>
     <use x="199.951171875" xlink:href="#DejaVuSans-65"/>
     <use x="261.474609375" xlink:href="#DejaVuSans-65"/>
     <use x="322.998046875" xlink:href="#DejaVuSans-70"/>
     <use x="386.474609375" xlink:href="#DejaVuSans-65"/>
     <use x="447.998046875" xlink:href="#DejaVuSans-72"/>
     <use x="489.111328125" xlink:href="#DejaVuSans-73"/>
    </g>
   </g>
  </g>
 </g>
 <defs>
  <clipPath id="pfeb518cb43">
   <rect height="460.8" width="491.04" x="99.0" y="57.6"/>
  </clipPath>
 </defs>
</svg>
